<?xml version="1.0" encoding="UTF-8"?>
<svg width="40px" height="24px" viewBox="0 0 40 24" version="1.1" xmlns="http://www.w3.org/2000/svg" xmlns:xlink="http://www.w3.org/1999/xlink">
    <!-- Generator: Sketch 47.1 (45422) - http://www.bohemiancoding.com/sketch -->
    <title>engine</title>
    <desc>Created with Sketch.</desc>
    <defs></defs>
    <g id="Stage" stroke="none" stroke-width="1" fill="none" fill-rule="evenodd">
        <g id="Artboard" transform="translate(-447.000000, -206.000000)" fill-rule="nonzero" fill="#FFFFFF">
            <path d="M465,208 L462,208 C461.447715,208 461,207.552285 461,207 C461,206.447715 461.447715,206 462,206 L470,206 C470.552285,206 471,206.447715 471,207 C471,207.552285 470.552285,208 470,208 L467,208 L467,209 L470.929632,209 C471.932692,209 472.869386,209.501303 473.425783,210.335899 L474.238317,211.5547 C474.423783,211.832899 474.736014,212 475.070368,212 L477,212 C478.656854,212 480,213.343146 480,215 L481,215 L481,214.618034 C481,213.513464 481.895431,212.618034 483,212.618034 C483.31049,212.618034 483.616716,212.690324 483.894427,212.82918 L485.894427,213.82918 C486.571995,214.167964 487,214.86049 487,215.618034 L487,224.381966 C487,225.13951 486.571995,225.832036 485.894427,226.17082 L483.894427,227.17082 C482.90647,227.664799 481.705124,227.26435 481.211146,226.276393 C481.07229,225.998682 481,225.692456 481,225.381966 L481,225 L480,225 L480,227 C480,228.656854 478.656854,230 477,230 L460.070368,230 C459.067308,230 458.130614,229.498697 457.574217,228.664101 L456.761683,227.4453 C456.576217,227.167101 456.263986,227 455.929632,227 L454,227 C452.343146,227 451,225.656854 451,224 L451,219 L449,219 L449,224 C449,224.552285 448.552285,225 448,225 C447.447715,225 447,224.552285 447,224 L447,212 C447,211.447715 447.447715,211 448,211 C448.552285,211 449,211.447715 449,212 L449,217 L451,217 L451,214 C451,212.343146 452.343146,211 454,211 L455.171573,211 C455.436789,211 455.691143,210.894643 455.87868,210.707107 L456.707107,209.87868 C457.269716,209.316071 458.032778,209 458.828427,209 L465,209 L465,208 Z M478,215 C478,214.447715 477.552285,214 477,214 L475.070368,214 C474.067308,214 473.130614,213.498697 472.574217,212.664101 L471.761683,211.4453 C471.576217,211.167101 471.263986,211 470.929632,211 L458.828427,211 C458.563211,211 458.308857,211.105357 458.12132,211.292893 L457.292893,212.12132 C456.730284,212.683929 455.967222,213 455.171573,213 L454,213 C453.447715,213 453,213.447715 453,214 L453,224 C453,224.552285 453.447715,225 454,225 L455.929632,225 C456.932692,225 457.869386,225.501303 458.425783,226.335899 L459.238317,227.5547 C459.423783,227.832899 459.736014,228 460.070368,228 L477,228 C477.552285,228 478,227.552285 478,227 L478,223 L483,223 L483,225.381966 L485,224.381966 L485,215.618034 L483,214.618034 L483,217 L478,217 L478,215 Z" id="engine"></path>
        </g>
    </g>
</svg>